<!DOCTYPE svg PUBLIC "-//W3C//DTD SVG 1.1//EN" "http://www.w3.org/Graphics/SVG/1.1/DTD/svg11.dtd">
<!-- Uploaded to: SVG Repo, www.svgrepo.com, Transformed by: SVG Repo Mixer Tools -->
<svg version="1.1" id="Layer_1" xmlns="http://www.w3.org/2000/svg" xmlns:xlink="http://www.w3.org/1999/xlink" viewBox="-51.2 -51.2 614.40 614.40" xml:space="preserve" width="256px" height="256px" fill="#85a4b7" stroke="#85a4b7">
<g id="SVGRepo_bgCarrier" stroke-width="0">
<rect x="-51.2" y="-51.2" width="614.40" height="614.40" rx="0" fill="#f5f5f5" strokewidth="0"/>
</g>
<g id="SVGRepo_tracerCarrier" stroke-linecap="round" stroke-linejoin="round"/>
<g id="SVGRepo_iconCarrier"> <polygon style="fill:#D80027;" points="119.697,512 98.941,498.162 78.184,512 78.184,442.811 119.697,442.811 "/> <path style="fill:#6e8796;" d="M78.184,65.038C78.184,29.12,107.303,0,143.222,0h197.881l14.3,13.838L368.778,0 c35.919,0,65.038,29.12,65.038,65.038v340.411c0,35.922-29.119,65.038-65.038,65.038l-13.838-13.838l-13.838,13.838H143.222 c-35.919,0-65.038-29.116-65.038-65.038V65.038z"/> <rect x="78.184" width="179.892" height="470.487"/> <rect x="341.103" style="fill:#BDBCC1;" width="27.676" height="470.487"/> </g>
</svg>